<svg width="294" height="308" viewBox="0 0 294 308" fill="none" xmlns="http://www.w3.org/2000/svg">
<path d="M157.38 16.3066L157.714 16.3662C159.325 17.4904 166.837 26.804 168.208 28.886C171.656 34.1212 174.892 36.1902 176.779 42.3717C174.838 47.217 168.987 49.5592 164.013 48.729C158.441 47.7987 160.666 48.1182 158.047 51.8275C158.707 56.9487 159.098 58.0927 159.044 63.501C159.002 67.7507 156.666 82.2525 158.694 85.248C160.143 86.2017 164.601 84.9975 166.309 85.0967C169.79 85.2987 174.3 84.9365 177.611 85.1497C179.58 85.4502 182.259 86.5952 184.177 86.7212C190.428 87.132 194.039 86.7815 198.97 91.2702C199.195 95.281 199.518 96.7727 194.948 97.305C195.398 98.4927 195.77 99.8562 196.134 101.084C195.127 105.627 194.329 104.597 194.987 110.238C195.603 115.515 194.287 128.312 195.996 132.956C195.672 134.077 194.523 137.621 194.743 138.542C195.018 139.688 195.521 141.502 195.579 142.816C195.636 144.127 195.051 144.919 195.145 146.352C195.474 146.817 195.544 146.907 195.833 147.45C196.456 148.619 194.253 149.794 194.154 150.533C193.832 152.926 195.702 156.395 195.934 158.775C196.265 162.176 195.33 164.846 195.176 168.157C195.217 170.926 196.291 172.874 196.328 175.701C196.353 177.627 195.144 190.318 196.844 190.929C198.473 191.514 204.657 189.438 206.704 189.623C207.425 189.688 209.914 190.798 210.633 191.079L210.926 190.966C211.284 190.83 212.316 190.359 212.638 190.333C223.286 189.471 233.966 190.354 244.6 189.699C245.845 189.555 247.947 190.026 249.079 189.804C254.76 188.689 260.525 188.935 266.25 188.13C266.905 188.037 268.89 188.862 269.11 188.739C272.418 186.878 277.125 189.777 275.625 193.641C275.268 194.558 273.365 197.673 272.05 197.929C267.808 198.756 263.07 197.628 258.758 198.278C253.685 199.512 249.125 198.265 244.125 198.227C232.108 198.151 220.263 198.026 208.22 198.079C205.379 198.091 199.909 199.377 197.182 198.813C196.171 198.243 194.885 198.738 193.796 199.45C189.558 202.223 185.812 200.602 181.092 200.308C175.908 199.986 171.126 199.431 166.022 201.007C164.986 201.327 159.541 200.535 158.167 200.74C153.022 201.028 147.839 201.092 142.711 200.429C141.098 200.22 138.188 200.841 136.41 200.861C133.99 200.888 129.681 200.344 127.488 201.231C127.839 202.956 128.138 204.718 127.969 206.493C128.175 208.218 126.587 213.349 126.958 214.767C127.818 218.048 127.454 219.114 126.935 222.631C126.85 223.433 127.983 226.135 127.822 226.713C126.268 232.292 127.501 236.063 128.519 241.503C128.62 242.045 127.743 242.701 127.342 243.088C127.058 244.355 127.765 243.49 127.841 244.782L127.114 245.592C126.859 246.705 126.982 246.056 127.475 247.241C127.709 247.803 126.889 249.412 126.992 250.132C126.961 250.687 128.095 253.392 128.019 253.715C127.043 257.862 128.925 265.192 127.24 269.092C128.583 272.202 128.061 274.43 127.043 277.48C128.196 281.728 128.81 289.418 127.116 293.39C127.696 294.195 128.243 295.315 128.714 296.21C128.122 297.735 127.289 301.63 126.585 303.785C122.66 304.793 121.902 303.78 117.913 304.055C118.021 301.432 118.843 299.277 118.969 296.742C119.384 288.322 117.549 279.822 118.468 271.41C118.494 271.172 118.035 269.99 117.918 269.697C120.897 260.787 116.498 249.984 118.511 240.78C118.783 239.539 118.947 238.305 118.986 237.033C119.019 234.58 119.141 231.634 118.89 229.199C118.801 228.338 117.926 227.558 117.876 226.496C117.724 223.25 118.437 220.295 118.981 217.151L117.835 214.452C113.241 213.793 109.178 213.254 104.555 212.979C102.05 212.829 99.1962 212.258 96.638 212.17C92.9955 212.046 89.4567 212.255 85.8127 212.008C85.9947 212.386 86.7682 213.965 86.7512 214.319C86.517 219.206 85.0597 226.914 87.074 231.507C86.8575 232.649 86.4722 233.745 86.113 234.851C86.7315 236.315 87.4345 238.468 86.8605 240.057C84.6005 246.313 87.599 284.355 85.2577 287.515C85.4385 288.16 86.5177 289.043 87.0685 289.562C84.582 294.753 87.184 301.792 86.2727 305.11C86.162 305.247 86.0275 305.415 85.8692 305.612C83.6712 305.942 82.6475 305.95 80.5225 306.712C79.2032 306.232 77.0377 306.04 76.312 305.383C77.6052 302.618 77.259 300.745 76.0632 297.987C76.6682 296.255 77.9057 290.912 77.4855 289.332C76.4027 285.265 77.2867 283.34 77.9145 279.35C78.0702 278.36 76.7162 277.19 75.9925 276.49C77.2647 273.015 77.072 269.095 77.2585 265.427C77.5172 260.342 78.9842 251.572 77.0275 246.89L77.8492 243.886C76.5717 239.741 77.7615 238.576 77.7952 234.456C77.7987 234.011 77.1887 231.888 77.0265 231.33C78.9257 226.546 78.005 208.072 77.578 202.266C77.4535 200.573 68.786 201.177 67.2105 201.252C65.083 201.352 60.9172 200.349 59.1735 200.586C52.654 201.472 46.6887 201.152 40.2002 201.123L17.322 201.161C15.8455 201.168 11.6375 201.791 10.8479 201.467C5.88824 199.43 6.10332 194.631 6.02467 190.223C5.99519 188.571 5.35219 186.61 4.96869 185.345L5.87634 182.618C3.65097 176.467 6.73522 177.052 6.32002 174.898C6.07842 173.645 5.22432 172.385 5.11259 171.128C5.02819 170.179 5.84052 169.898 5.85787 168.978C5.88682 167.441 5.07107 165.914 5.09672 164.324C5.14452 161.359 6.18374 158.319 6.02699 155.391C5.96522 154.237 5.47147 153.144 5.36144 151.987C5.04362 148.647 5.00392 145.198 4.96029 141.841C4.88284 135.881 5.52289 129.809 5.31572 123.871C5.24652 121.887 5.14007 119.879 4.87124 117.912C4.65062 116.298 4.21312 114.564 4.20857 112.944C4.19989 109.847 5.28752 106.805 5.29044 103.648C5.29147 102.546 4.75342 101.821 4.17432 100.925C5.59214 97.6925 5.92482 91.4977 10.2608 89.9907C14.4922 88.5202 26.5172 88.0685 30.5285 89.4322C30.7605 89.3047 30.9937 89.18 31.2282 89.0572C35.0095 87.0865 35.1555 88.69 39.0375 88.9527C39.607 88.9912 41.4755 88.222 42.1667 88.2132C42.997 88.2027 43.8965 88.652 44.759 88.6267C45.7987 88.5962 47.233 88.1947 48.2162 88.177C51.6057 88.1155 55.8327 87.8392 59.0432 88.8422C63.05 87.079 64.2877 88.9765 68.4017 88.6197C69.8395 88.4952 73.2515 87.1415 74.559 87.2055C77.432 87.23 81.1842 88.3595 84.0125 88.0662C88.6857 87.5817 91.2357 86.6372 96.018 87.6665C97.2845 87.9392 102.538 86.74 104.366 86.8287C106.991 86.9562 109.873 86.8895 112.525 86.9905C116.09 86.5147 119.733 86.0387 123.287 85.5332C126.785 85.036 126.765 84.7682 130.138 85.8435C132.384 84.8015 132.713 84.9872 135.065 85.8172C140.277 84.1205 143.922 86.1012 149.97 85.9927L149.966 62.536C149.957 61.583 150.703 59.1697 150.571 58.5527C148.494 48.8582 153.066 36.4427 150.421 27.1157C151.731 23.0434 151.278 19.7782 154.211 17.2232C155.445 17.0602 156.363 17.0389 157.38 16.3066ZM158.086 96.142C157.978 101.985 157.54 108.251 158.793 113.864C164.387 116.239 165.599 114.869 168.262 121.514C168.392 121.839 168.512 122.169 168.621 122.502C168.181 123.805 168.009 124.336 167.809 125.683C161.413 128.925 137.183 131.618 140.143 118.822C141.03 114.984 147.899 114.988 150.976 114.915C151.092 109.065 148.398 102.53 151.042 96.131C146.402 95.996 140.95 95.2345 136.358 95.7535C135.467 95.8542 134.567 96.1075 133.661 96.1107C126.261 95.2885 118.78 96.1662 111.389 96.7625C110.134 96.8645 108.691 96.3032 107.412 96.4297C102.767 96.7305 97.6552 97.3295 93.1095 96.2317C92.0925 96.1562 91.342 97.453 90.3395 96.8032C89.3205 96.1425 87.8857 96.6847 86.739 96.7037C80.9592 96.8052 75.2315 96.9947 69.4437 97.0582C67.3867 97.081 64.551 96.175 62.432 96.1865C61.0232 96.1942 59.448 96.9027 58.0332 96.838C52.4135 96.585 46.9865 96.1962 41.3575 96.8735C40.0437 97.0315 38.55 96.1577 37.2105 96.52C31.6515 98.0235 25.3705 95.867 19.5657 97.3022C18.8649 97.4755 17.9729 97.802 17.3053 97.6882C16.4247 97.4542 16.3921 96.9785 15.3825 97.171C14.6944 98.6822 15.4715 101.938 15.9994 103.486C15.2895 105.185 14.0919 110.339 15.3172 111.704C16.2338 111.467 16.8105 111.006 17.7497 111.513C18.4873 111.91 19.3884 111.345 19.907 111.612C23.1018 113.253 23.9298 112.547 27.0315 112.273C27.983 112.189 31.4405 113.874 32.6842 113.837C36.689 114.178 41.5822 113.707 45.5027 114.21C53.0592 120.103 42.4497 124.092 37.2412 123.821C34.6372 123.685 31.8162 123.852 29.2062 123.843C26.2112 123.758 24.3379 123.206 21.2098 124.002C20.127 124.277 20.0274 122.664 17.5882 124.011C16.7363 124.052 16.3812 123.704 15.647 123.235C14.5945 123.84 14.5316 127.298 14.2117 128.492C14.0342 129.155 14.4221 129.927 14.7127 130.551C15.3521 131.728 14.0479 139.039 14.1156 139.203C15.83 143.355 13.9845 144.583 14.0418 147.667C14.1752 154.843 14.0377 161.443 13.2867 168.552C12.7807 173.342 16.1726 172.831 13.0945 179.21C14.4403 183.738 14.0631 188.21 13.9991 192.941C18.5983 192.983 22.4511 192.946 27.0112 192.417C30.302 192.035 34.306 192.409 37.6422 192.333C40.7492 192.418 41.6755 191.534 44.7615 192.627C49.7675 190.677 50.9592 191.403 56.3142 192.076C59.5607 192.484 63.6365 191.285 66.6597 191.429C71.0312 191.638 73.8035 192.604 78.4095 191.084C79.0035 190.888 82.6875 192.118 83.5667 192.044C87.3882 191.118 90.892 192.052 94.6835 191.937C96.4215 191.885 98.5242 191.034 100.455 190.973C109.681 190.682 118.768 191.576 127.96 190.843C131.898 190.529 135.871 191.72 139.982 190.344C140.574 190.187 144.513 191.221 145.226 191.067C151.251 189.767 156.728 191.356 162.818 191.008C164.828 190.894 166.212 190.341 168.161 190.056C173.287 189.874 178.296 190.277 183.329 189.247C183.789 189.153 185.136 190.361 185.483 188.99C186.612 182.019 185.975 174.381 185.656 167.319C185.517 164.244 185.867 164.643 184.968 161.675C187.462 153.196 184.646 146.597 184.976 138.069C185.104 134.753 186.387 130.058 185.069 127.057C186.505 123.547 185.81 120.425 185.875 116.733L186.035 97.2572C181.993 97.2015 180.65 96.6832 176.7 95.7372C176.188 95.6147 172.83 95.7322 171.972 95.6922C169.036 95.5557 166.649 95.0685 163.708 95.3165C161.844 95.6807 159.98 96.1182 158.086 96.142Z" fill="black"/>
<path d="M61.6038 115.08C63.5985 114.924 65.4185 114.973 67.4055 115.137C69.3518 116.568 69.9745 117.36 70.8303 119.552C69.591 120.932 68.7908 121.735 67.4083 122.975C66.3488 123.082 65.7558 122.756 64.8635 122.744C59.8535 122.679 55.5155 119.012 61.6038 115.08Z" fill="black" fill-opacity="0.988235"/>
<path d="M83.5804 116.043C84.0989 116.031 85.6426 115.932 86.0474 116.157C88.4834 117.511 90.7899 121.289 87.1839 122.904C85.3601 123.531 83.9579 123.782 82.5891 122.047C81.9394 121.22 81.6561 120.162 81.8049 119.121C82.0224 117.567 82.3801 116.932 83.5804 116.043Z" fill="black" fill-opacity="0.980392"/>
<path d="M102.39 116.042C105.098 115.912 105.661 115.956 107.8 117.581L108.253 120.568C107.297 121.228 106.775 121.719 105.918 122.514C105.012 123.141 103.741 123.301 102.907 122.589C100.4 120.443 100.951 118.293 102.39 116.042Z" fill="black" fill-opacity="0.980392"/>
</svg>
