<svg width="336" height="399" viewBox="0 0 336 399" fill="none" xmlns="http://www.w3.org/2000/svg">
<path d="M314.722 3.26636C318.402 4.06886 320.402 3.96013 323.957 5.99388C333.007 11.1715 330.807 13.3839 333.047 21.6248C332.072 23.964 331.745 29.862 330.21 31.7285C326.1 36.7317 322.585 42.2577 318.125 46.97C316.135 49.0707 316.282 51.0412 315.157 52.463C312.037 56.4095 309.077 59.8162 307.155 64.6102C303.932 72.1502 301.907 78.9582 301.12 87.1755C300.977 88.6627 301.207 91.6237 300.777 93.21C299.022 95.273 299.25 98.736 298.517 100.41C296.495 105.05 292.64 109.641 291.777 114.697C290.815 115.458 289.242 116.638 288.492 117.527C286.625 119.968 285.387 122.105 283.14 124.3C278.255 129.073 271.22 132.756 266.367 137.201C265.952 139.504 265.735 140.536 264.97 142.739C267.395 147.806 264.902 147.228 264.062 151.689C263.685 153.685 264.377 157.852 263.96 159.918C261.94 169.905 262.055 179.828 261.875 189.96C261.795 194.322 263.955 200.769 261.802 204.209C262.565 204.981 263.272 205.761 264.002 206.564C262.235 211.674 263.235 211.93 263.905 217.16C263.995 217.873 263.192 219.295 263.107 220.061C262.982 221.222 263.637 220.577 263.682 221.818C262.192 222.267 262.04 222.908 261.397 224.493C258.837 230.824 255.63 225.697 252.192 228.889C251.865 229.193 250.3 229.777 249.823 229.961C248.438 229.467 248.04 229.452 246.586 229.391C244.939 229.55 240.491 228.467 239.107 228.753C234.779 229.647 232.969 227.407 228.992 225.975C226.731 225.16 223.829 225.026 221.3 224.856C221.103 226.983 220.158 231.004 220.702 232.54C220.831 232.906 220.179 235.784 220.149 236.598C220.041 239.494 219.142 242.798 219.039 245.628C218.91 249.168 219.196 252.88 218.906 256.417C218.765 258.147 217.611 261.027 217.363 262.797C217.193 264.01 217.708 266.46 217.719 267.867C217.724 268.497 217.016 270.182 217.056 270.61C217.318 273.417 216.5 280.265 217.321 282.58C218.438 285.73 217.073 288.887 217.184 292.202C217.234 293.662 218.109 295.315 217.968 296.577C217.438 301.337 216.117 306.007 217.91 310.697C216.095 315.092 217.672 316.832 216.028 322.107C216.186 322.57 217.424 327.422 217.462 327.445C218.165 327.822 219.77 328.467 220.513 328.94C222.119 330.257 225.648 331.487 227.109 332.645C232.437 336.86 238.318 339.01 242.784 344.272C244.099 345.822 246.662 347.415 248.128 349.032C251.832 353.12 255.147 357.285 257.075 362.497C255.105 367.135 257.04 366.48 256.55 369.43C255.89 373.397 254.162 373.507 254.945 378.137C255.25 379.945 252.595 387.78 251.695 389.727C249.643 390.947 247.421 391.437 245.044 391.83C241.588 392.402 237.743 391.675 234.316 391.082C233.51 390.942 232.376 390.425 231.553 390.275C230.048 390.002 227.459 390.797 226.06 390.457C223.495 389.832 220.26 389.322 217.826 388.405C216.775 388.007 214.801 385.572 213.806 385.035C212.573 384.37 211.125 384.015 209.897 383.245C206.443 381.082 202.981 378.735 199.467 376.69C197.117 375.322 193.485 374.78 191.019 373.842C190.323 373.577 187.11 371.305 186.329 370.68C182.137 367.285 177.548 363.327 174.894 358.555C173.831 356.645 173.432 352.25 173.278 350.035C173.132 347.92 173.823 345.532 173.831 343.465C173.845 339.39 173.075 335.675 174.778 331.74C175.636 329.76 176.406 327.692 177.802 325.967C179.902 323.37 182.053 322.187 185.313 321.8C186.614 320.767 187.021 320.43 188.019 319.117C186.461 314.295 187.107 312.272 187.309 307.367C187.472 303.442 186.822 303.812 188.037 299.897C187.667 298.782 187.348 297.685 187.019 296.557C189.076 289.77 187.288 286.327 188.958 279.345C188.553 278.31 188.284 277.82 188.446 276.707C189.073 272.4 189.26 270.537 188.043 266.41C189.674 261.36 188.741 256.735 189.054 251.587C189.243 248.475 188.746 245.341 189.608 242.511C189.463 242.985 189.039 239.973 189.244 238.735C190.069 233.754 189.97 228.462 189.947 223.433C185.624 222.257 182.725 222.218 178.207 222.234C177.193 222.237 176.778 222.828 175.966 222.816C172 222.753 168.283 222.736 164.321 222.451C163.077 222.361 160.078 223.077 158.455 222.976C156.232 222.925 154.006 222.47 151.793 222.34C147.637 222.096 143.539 222.063 139.392 221.548C138.13 221.391 136.038 222.213 134.643 222.039C130.768 221.558 126.994 220.986 123.069 221.204C122.188 221.252 120.702 221.127 120.06 221.79C119.431 224.394 117.018 242.646 117.665 244.286C117.691 244.353 117.723 244.419 117.747 244.487C118.314 246.072 116.33 252.082 116.078 254.202C115.712 257.29 116.619 260.42 115.389 263.357C114.998 264.292 115.712 265.477 116.076 266.35C115.672 267.717 115.474 268.982 115.231 270.375L116.167 272.392C115.53 274.542 114.978 275.655 114.014 277.672C116.718 284.252 112.505 287.582 114.986 293.307C113.798 297.02 113.339 307.027 114.687 310.335C114.606 310.515 114.238 311.317 114.222 311.507C113.927 315.095 113.833 317.065 115.668 320.142C120.349 322.105 121.593 323.775 124.919 327.56L125.134 330.457C129.06 334.305 128.629 339.737 127.638 344.73L129.148 348.407C128.705 350.057 128.11 351.045 127.344 352.525C127.238 352.73 127.888 353.307 127.401 354.692C126.875 356.19 125.633 360.102 124.703 361.262C120.832 366.097 114.989 371.75 109.856 375.092C107.584 376.572 102.945 378.422 100.418 379.762C99.2756 380.367 97.1803 380.99 96.0551 381.612C95.3058 382.03 95.3766 382.405 94.2468 383.02C93.3103 383.007 93.6008 383.007 92.6868 382.33C91.7378 382.43 90.9606 383.857 90.3733 383.88C84.7803 384.097 81.8931 386.735 77.1801 389.22C73.6918 391.06 70.4356 390.547 67.4111 393.862C64.9461 394.115 62.6943 394.15 60.2161 394.207C59.6063 394.857 58.9906 395.502 58.3688 396.142C56.5443 395.552 54.6006 395.04 52.9741 393.997C52.0656 393.415 46.6071 387.425 46.3833 386.692C46.2331 386.202 46.6691 384.362 46.7038 383.765C46.7701 382.625 46.4853 381.705 46.2788 380.607C45.7891 378 45.9321 375.117 45.9546 372.472C46.0551 360.717 47.6768 360.577 53.1483 351.235C54.4301 349.045 55.1658 346.612 56.5866 344.477C60.8021 338.142 66.3401 332.515 71.0603 326.532C72.4166 324.815 75.2006 323.942 76.2701 322.175C77.8583 319.55 77.3781 308.802 77.6936 305.36C77.8738 303.392 78.8546 301.512 79.0373 299.56C79.1756 298.085 78.6436 296.547 78.7383 295.027C78.9863 291.035 79.9153 287.112 80.2478 283.135C80.4363 280.877 80.0991 278.66 80.2003 276.41C80.2923 274.362 80.7733 272.64 80.2021 270.622C80.9258 268.845 81.3086 266.977 81.7551 265.11C80.5018 261.872 80.6763 257.885 82.4233 254.855C82.1226 253.417 81.0603 248.778 81.4168 247.376C81.6306 246.535 82.7291 245.262 82.8178 243.671C83.0256 241.838 82.3978 239.184 82.6036 237.44C83.2918 231.606 83.3093 226.686 82.8716 220.847C75.3233 224.247 70.3141 223.209 62.6081 221.798C61.9298 221.897 52.7573 221.636 53.0731 221.446C45.1886 226.182 42.1873 217.657 40.4463 211.44C40.3056 210.938 40.8501 208.579 40.8618 207.384C40.9376 199.555 40.7206 191.758 41.8778 183.98C42.4048 180.272 41.4368 176.254 42.8091 172.469C44.0303 169.101 37.4171 166.685 35.1851 165.57C32.0861 164.06 29.5548 162.509 26.1603 161.781C22.6758 156.544 17.9336 153.256 14.921 147.742C13.6304 145.38 11.8856 143.349 10.0757 141.372C9.73817 135.772 7.48237 133.854 5.85637 128.531C5.3056 126.728 6.22915 124.624 5.9795 122.686C5.8182 121.434 4.22295 119.029 4.16447 117.925C3.96222 114.107 5.34905 108.013 6.04175 104.145L4.924 101.959C6.38582 100.106 6.47085 99.2042 7.4827 97.482C9.38135 94.2505 12.4538 89.0642 15.4298 86.827C19.8962 83.4692 26.9316 78.5327 32.1276 76.55C36.7756 74.7762 40.0788 75.35 45.1446 72.9925C49.5116 74.1185 52.1833 74.1987 56.6083 74.1872C58.1618 74.1832 60.3288 74.7762 62.0158 74.8462C63.6846 75.1257 66.1036 74.8255 67.6653 75.1587C72.4283 76.1747 76.5423 75.7202 81.2128 75.5487C84.5966 75.4247 87.8281 77.8585 91.8716 76.5687C93.8186 75.9475 93.1686 77.4397 96.0598 75.7805C98.1748 76.0197 101.136 76.7955 102.998 76.8627C108.006 77.043 113.119 76.9277 118.13 76.7942C120.986 76.6802 124.404 77.3135 127.22 76.9545C131.57 76.4002 135.543 75.7005 139.978 75.7695C141.475 75.7927 143.831 74.9547 145.442 74.9632C147.38 74.9732 149.262 75.364 151.196 75.2905C153.948 74.875 157.532 75.2962 160.191 74.873C170.193 73.2815 180.255 74.3407 190.328 73.8822C192.282 73.7935 194.235 73.9147 196.183 73.889C198.781 73.8547 201.456 73.139 204.089 73.2305C206.434 73.3185 208.724 74.2235 211.066 74.3822C218.076 74.052 224.728 73.2815 231.536 75.5765C235.438 74.0732 243.9 77.438 247.724 77.3865C253.597 77.3075 253.17 76.2887 259.08 79.022C262.51 72.598 267.672 68.105 267.672 59.9877C267.672 59.4655 269.64 56.6062 269.91 55.5995C271.015 51.4742 271.095 47.0482 272.615 43.0492C274.517 38.234 277.127 33.7287 278.712 28.7645C278.967 28.2197 279.297 27.0192 279.592 26.569C282.525 21.8426 286.422 17.477 289.965 13.2691C294.917 7.38811 299.56 6.92678 306.46 4.78051C309.042 3.97783 312.292 4.25886 314.722 3.26636ZM269.185 80.7112C269.005 82.5967 268.987 84.064 268.972 85.9452C267.945 86.0285 266.617 86.1 265.622 86.2645C263.59 88.0027 261.677 89.6512 259.537 91.2725C254.295 95.246 248.332 98.0095 243.378 102.298C242.653 102.925 240.275 103.287 239.337 103.768C237.59 104.768 233.482 108.261 232.354 109.737C228.531 110.659 221.692 114.951 219.04 117.807C217.832 118.074 216.47 118.341 215.284 118.641C213.997 119.828 213.583 120.353 212.517 121.765L212.213 121.853C209.901 122.54 207.371 123.964 205.078 124.949C198.407 127.812 191.359 131.184 184.966 134.618C181.569 136.442 177.741 139.376 174.106 141.178C173.246 141.604 170.942 143.812 170.055 144.217C166.596 145.784 163.05 147.499 159.435 148.665C157.464 149.301 156.477 148.593 154.784 147.756C148.61 144.705 143.947 140.642 137.473 138.143C133.981 136.795 133.54 135.639 129.246 134.765C126.138 131.054 120.215 128.978 115.971 126.762C114.753 126.126 113.656 125.294 112.46 124.633C111.618 124.168 110.53 124.222 109.712 123.66C107.536 122.165 103.712 117.831 101.32 115.822C99.7908 114.537 97.6568 113.745 96.2503 112.386C95.4118 111.576 94.8743 110.453 93.9531 109.73C91.4373 107.755 88.3636 106.42 85.6921 104.662C79.1416 100.353 55.5771 82.7537 49.3941 82.2175C41.2721 81.5127 28.3761 86.985 22.3465 92.2075C17.0809 96.7682 14.6342 100.892 14.1322 107.904C14.0414 109.172 14.0708 110.477 13.8939 111.735C13.7508 112.752 13.2069 113.764 13.2597 114.79C13.4474 118.439 14.3335 123.458 15.3494 126.977C15.952 129.063 17.0672 131.017 17.9381 133.001C19.9543 137.596 21.1917 141.785 24.6511 145.682C25.7436 146.913 27.2708 147.711 28.3633 148.935C29.4468 150.148 30.1716 151.85 31.4363 152.876C34.5133 155.373 38.8236 156.912 42.2806 158.885C43.6003 159.638 44.7473 160.705 46.0858 161.416C46.4986 161.635 47.0098 161.848 47.4743 161.896C48.5611 162.009 50.0583 161.341 51.2781 161.321C54.7936 161.264 58.2331 161.89 61.6976 161.9C66.9131 161.915 69.1023 160.26 74.8033 161.909C80.4171 159.729 82.8163 163.683 88.5101 163.34C92.5263 163.097 95.5951 162.705 97.9988 159.156C98.0301 153.937 97.2211 151.223 93.3748 147.327C92.1116 146.047 90.6653 144.563 89.2113 143.489C87.7701 142.424 85.6766 141.807 84.1831 140.959C80.4376 138.832 76.0756 136.71 71.9273 135.485C69.5973 134.797 65.7506 134.518 63.2411 133.954C60.5531 133.351 57.6711 132.557 54.9621 132.189C53.0348 131.926 50.7478 132.12 48.7551 131.975L48.6421 131.893C46.6043 130.434 41.7433 129.54 41.2868 127.118C40.7806 124.433 46.5668 114.447 48.5538 113.19C49.8516 113.336 50.5156 113.399 51.8126 113.357C56.4181 117.26 51.6313 121.534 53.5306 122.165C59.3938 124.114 65.7228 124.398 71.6311 126.556C72.0446 126.397 72.9663 126.057 73.4071 126.173C76.8923 127.145 80.9301 128.427 84.2401 129.894C90.8056 132.888 97.0408 137.94 102.106 143.001C103.163 144.057 107.442 154.163 107.357 155.593C107.11 159.731 106.001 166.93 102.827 169.755C98.6768 170.636 95.7393 172.31 91.6613 172.915C90.6041 173.072 89.5128 172.452 88.7673 172.507C86.9891 172.638 85.7603 173.195 83.8926 173.089C82.1213 172.988 81.3981 171.849 80.2411 171.579C78.2748 171.12 75.3793 171.104 73.3178 170.963C68.5156 170.634 63.6008 171.266 58.8633 171.538C57.9718 171.589 52.0333 171.028 51.1416 170.926C51.0523 173.857 50.3656 174.853 50.0748 177.476C49.9426 179.855 50.1248 182.271 49.9536 184.645C49.9401 185.63 48.6546 186.743 49.2078 187.662C49.6453 188.388 49.3546 189.453 49.2503 190.288C48.8298 193.654 49.1286 197.083 48.9116 200.463C48.8273 201.779 48.1628 203.182 48.0851 204.51C48.0071 205.299 49.2061 207.585 49.0256 208.195C47.6803 212.461 47.7758 212.939 52.3868 213.034C55.4076 213.096 59.5021 214.192 62.4416 213.928C66.8941 213.528 70.9283 213.983 75.2818 213.975C80.6483 213.966 86.2733 213.13 91.6331 212.747C93.1041 212.602 94.6418 212.641 96.1246 212.552C101.455 212.23 106.798 212.014 112.111 211.485C113.12 211.384 114.572 212.039 115.624 212.003C120.358 212.058 125.289 211.886 130.005 212.086C131.482 212.149 134.535 213.584 135.448 212.74C138.191 210.204 139.003 212.462 142.234 212.822C145.273 213.161 149.442 212.958 152.565 213.069C155.035 213.007 160.274 213.596 162.24 213.468C168.565 213.056 167.416 211.67 173.639 213.732C178.448 212.033 183.291 213.636 188.048 213.493C191.789 213.38 198.002 214.442 201.246 214.076C209.376 213.157 217.194 214.722 225.302 215.703C226.572 215.857 228.417 215.427 229.722 215.54C234.398 217.238 239.495 218.467 244.585 217.226C245.997 217.751 246.756 218.232 248.064 219.007C254.222 216.382 257.357 223.019 254.097 210.336C255.867 205.095 254.55 200.518 254.207 195.232C253.867 189.964 254.477 185.533 253.052 180.328C254.712 175.253 253.7 170.173 254.19 165.007C254.602 160.63 257.425 148.76 256.1 145.096C255.952 144.691 255.847 144.26 255.717 143.848C252.517 147.137 250.84 146.792 247.82 143.399L247.654 143.209C248.095 142.446 249.532 139.922 250.032 139.416C254.437 134.961 258.255 133.15 262.605 128.259L265.362 127.731C270.815 122.461 277.49 117.806 282.2 111.859C283.637 110.042 284.757 107.923 285.927 105.928C287.152 103.843 288.35 101.902 289.09 99.5697C289.792 97.3602 289.757 95.0995 290.302 92.8935C290.665 91.4272 291.667 90.304 291.917 88.7357C292.547 84.7555 292.63 80.7512 293.14 76.7702C293.51 73.881 296.17 68.4027 296.167 66.2675C296.167 66.1445 296.112 65.8977 296.097 65.8055C295.552 62.3767 306.86 46.6747 309.305 43.1277C310.395 41.545 311.327 39.8515 312.477 38.3105C314.565 35.5112 321.582 26.8377 322.547 24.3965C323.02 23.2019 323.082 21.6762 322.902 20.4147C322.585 18.1839 321.16 16.6656 320.37 14.6496C315.77 12.2436 313.56 14.2358 310.885 13.2662L310.632 13.3742C308.237 14.3852 305.835 14.5744 303.367 15.8293C294.497 20.3396 289.062 28.5615 285.355 37.5302C283.74 41.4347 283.882 43.9712 281.237 47.6937C280.485 49.1932 280.282 54.8697 279.81 55.8035C278.14 59.1095 278.075 60.0477 277.495 63.6265C276.617 69.0597 272.737 76.5055 269.185 80.7112ZM91.0576 231.06C91.0003 238.844 89.9321 246.693 89.9836 254.537C90.0113 258.747 88.2816 262.067 90.0818 266.38C88.4676 270.437 89.7646 269.522 89.3663 273.675C89.3053 274.31 88.3121 276.4 87.9918 277.065C89.8356 282.71 89.0298 288.172 86.9693 293.65C87.2286 294.525 87.8788 296.537 87.8258 297.357C87.5118 302.247 86.6743 307.035 86.7031 311.97C86.7066 312.542 86.1271 315.615 86.1583 315.712C86.8978 318.292 85.8211 320.905 85.7516 323.697C85.7031 325.65 86.2708 329.747 85.9796 331.352C85.2668 335.277 83.3656 334.937 89.2433 335.862C92.2703 335.892 92.5951 334.792 95.7338 335.287C96.7026 334.625 97.2416 334.25 98.3126 333.78C99.6693 333.182 104.051 332.81 104.615 331.682C103.763 329.89 105.117 325.147 105.157 322.75C105.223 318.715 105.057 314.74 105.212 310.715C105.577 306.255 106.371 302.81 105.301 298.307C105.056 297.275 106.87 293.53 105.599 291.997C104.686 290.495 106.328 288.14 106.127 287.302C105.374 284.177 105.989 282.542 106.243 279.52L107.685 262.062C107.908 259.557 107.814 256.942 108.068 254.485C108.804 247.34 109.656 240.257 110.807 233.164C110.954 232.257 111.017 231.386 110.032 231.084C108.564 230.548 106.408 230.303 104.871 230.299C102.527 231.153 101.73 230.669 99.3188 230.752C96.4418 230.851 93.9703 231.39 91.0576 231.06ZM197.113 233.966C197.301 235.008 197.048 239.739 197.052 241.255L196.988 265C196.958 269.04 196.429 277.192 197.886 280.777C195.698 286.462 196.127 295.875 196.062 302.117C196.053 302.922 196.765 304.532 196.717 305.285C196.459 309.315 195.104 313.525 196.747 317.46C197.027 318.132 197.561 319.167 197.928 319.847C196.7 323.44 196.794 327.62 196.287 331.387C196.04 333.217 196.43 334.835 196.065 336.65C201.055 341.832 202.066 339.35 207.616 336.57C209.321 328.627 207.131 329.445 207.174 323.115C207.687 318.615 208.174 314.422 208.258 309.852C208.302 307.46 207.839 304.335 207.98 301.905C208.079 300.18 208.769 298.052 208.933 296.402C209.657 289.107 206.645 282.937 209.49 275.742C209.804 274.95 208.414 273.345 208.5 272.485C209.768 263.732 211.23 254.722 211.006 245.855C210.913 242.174 211.716 237.319 213.058 234.054C207.736 234.129 202.412 234.548 197.113 233.966ZM190.432 82.616C185.808 84.2402 182.096 81.3755 176.308 85.017C173.183 83.32 174.297 83.599 170.922 83.923C169.683 84.0417 166.084 82.9152 164.582 83.184C160.558 83.1827 156.545 83.6185 152.546 84.003C150.079 84.24 146.842 83.9617 144.42 84.254C136.672 85.189 128.691 85.1735 120.897 85.6292C120.293 85.6645 118.694 85.1477 117.877 85.0912C116.597 85.0027 114.609 85.6297 113.464 85.584C110.968 85.475 108.433 85.1217 105.937 85.0102C104.196 84.9325 102.155 84.433 100.493 84.5772C99.5011 84.6635 99.1773 85.452 97.8553 84.5877C96.6538 83.8022 95.1623 85.3337 93.7833 84.9815C88.0483 84.289 82.3466 84.1832 76.6106 83.7107C75.4513 83.6152 73.8343 84.1242 73.1976 84.0182C72.4723 83.8975 70.4571 82.8735 69.6251 82.559C70.4213 83.7985 70.8981 84.584 71.8816 85.6665L75.4218 86.2692C77.8881 90.266 81.4576 91.232 85.0606 93.7667C89.5011 96.8902 93.8483 99.8232 98.5763 102.508C99.7193 103.157 100.688 105.279 101.801 106.112C103.004 107.162 105.874 108.397 106.802 109.223C110.712 112.704 114.487 115.815 118.851 118.743C120.831 120.071 123.412 120.025 125.223 120.834C126.619 121.458 129.236 123.307 130.733 124.145C132.277 125.01 133.741 125.534 135.204 126.298C138.085 128.05 141.444 129.812 144.661 130.886C147.489 131.83 149.436 133.626 151.924 135.194C154.045 136.521 156.246 137.753 158.329 139.13C165.949 133.688 175.299 129.403 183.172 124.208C185.104 123.158 187.751 122.812 189.654 121.839C197.846 117.621 205.785 113.008 214.197 109.233C217.17 107.899 219.289 104.265 222.142 102.537C224.812 100.894 227.739 99.952 230.371 98.217C234.125 95.7432 237.888 93.109 241.746 90.8122C243.825 89.5747 246.1 88.769 248.313 87.4387C243.295 85.9142 240.473 84.9967 235.184 85.6025C233.425 85.804 232.701 84.808 230.62 85.6185C228.224 85.101 226.558 83.5155 224.147 83.2237C219.617 82.6755 215.25 83.6527 210.882 83.8305C208.768 83.9167 203.957 82.7512 201.642 82.671C198.915 82.5762 196.361 83.152 193.605 83.069C192.229 83.0275 191.429 82.1727 190.432 82.616Z" fill="black"/>
<path d="M115.766 92.0588C116.246 92.0303 116.727 92.0128 117.207 92.0058C121.22 91.9658 122.4 93.7993 124.313 96.32C125.104 97.363 131.544 96.9745 133.111 96.934C135.473 95.1283 138.595 92.57 141.662 92.903C146.649 93.4443 146.003 97.9953 142.859 100.496C140.484 101.898 138.218 105.033 135.56 105.108C129.823 105.269 121.622 105.141 116.936 101.523C113.334 98.742 112.821 95.4985 115.766 92.0588Z" fill="black"/>
<path d="M186.796 94.0963C189.512 93.9298 196.005 93.6088 194.035 98.817C192.841 101.976 188.779 104.041 185.817 105.333C180.389 107.701 176.76 107.588 171.351 105.333C169.346 104.25 167.249 101.662 166.325 99.5855C164.791 96.1398 168.049 95.3625 170.49 94.4528C173.582 95.7815 175.003 97.681 178.092 98.9105C182.434 96.9013 182.597 97.2528 186.796 94.0963Z" fill="black"/>
<path d="M151.929 113.054C159.597 112.629 172.972 116.212 164.869 125.954C163.567 125.379 162.581 125.116 161.206 124.724C160.307 123.652 159.685 122.95 158.685 121.977L157.688 121.414C157.21 121.446 157.062 121.602 156.667 121.87L156.521 121.971C154.347 122.001 155.174 120.455 152.114 121.929C148.33 123.75 144.91 126.606 142.833 121.216C143.334 119.637 143.692 118.874 144.423 117.372C146.299 116.14 149.983 113.991 151.929 113.054Z" fill="black"/>
</svg>
