<svg width="345" height="244" viewBox="0 0 345 244" fill="none" xmlns="http://www.w3.org/2000/svg">
<path d="M252.938 233.701C254.932 233.639 256.052 232.434 257.589 231.791C258.228 231.523 260.013 232.223 261.273 231.765C264.695 230.52 264.695 229.346 265.648 226.297C265.743 225.991 266.622 225.856 267.082 225.726L267.294 225.318C266.932 224.882 266.754 224.74 266.313 224.381C266.265 223.16 267.306 222.998 267.263 222.065C267.03 217.161 265.414 215.83 267.34 210.944C266.83 210.184 266.034 209.206 265.464 208.457C266.753 205.907 265.593 197.937 265.395 194.571C264.633 181.619 267.101 169.48 267.44 156.683C267.571 151.762 270.275 152.705 268.39 146.721C269.279 144.406 269.248 143.723 269.282 141.308C271.467 139.339 274.338 138.107 276.742 136.277C280.872 133.104 286.19 129.481 289.159 125.181C291.311 122.066 291.582 121.144 294.866 118.918C294.897 118.636 295.026 117.202 295.133 117.022C297.489 113.03 299.896 109.004 301.59 104.662C304.338 97.6241 304.238 90.2643 305.35 82.8996C305.732 80.365 307.121 78.2154 307.454 75.7325L309.158 74.0364C309.415 67.1427 314.858 61.0275 319.123 56.2314C319.273 55.3876 319.38 54.2774 319.49 53.4063C322.838 50.1871 326.283 45.5644 329.052 41.833C330.365 40.0663 332.522 37.8539 333.375 35.8969C335.228 31.6407 336.31 26.8527 335.157 22.257C334.814 20.8578 334.769 19.0602 334.752 17.601C334.69 17.5023 334.623 17.4048 334.554 17.3091C327.379 7.09013 317.512 6.37171 306.532 10.2586C304.602 10.9415 302.338 11.1907 300.48 12.0361C292.791 15.5339 288.263 26.4776 282.285 30.7255C281.618 37.3321 277.317 42.9329 275.484 49.2902C274.162 53.8776 274.605 58.6361 271.669 62.6009C270.895 63.6476 270.526 64.7494 270.933 66.0121C271.054 69.2799 264.924 82.434 261.609 82.8459L260.842 82.1899C256.338 81.1689 254.975 81.4932 250.46 81.2723C248.361 81.1696 244.846 80.2239 242.442 80.0642C240.917 79.963 237.777 79.2691 236.136 79.2012C236.088 79.199 235.369 79.6839 235.186 79.6959C233.941 79.7766 231.995 78.5914 230.767 78.5519C227.259 78.4389 223.769 78.3972 220.259 78.4208C218.597 78.4318 216.193 78.7692 214.634 78.7075C212.373 78.5235 210.15 77.676 207.867 77.7081C204.177 77.7603 200.489 78.2412 196.806 78.4566C196.874 78.4525 196.031 77.7379 195.981 77.6991C193.842 78.6453 194.104 78.4206 191.857 78.4373C182.064 78.5099 172.278 77.9245 162.549 79.2529C159.743 79.636 156.492 79.2484 153.67 79.8581C153.67 79.8581 152.866 79.475 152.799 79.443C147.687 79.1002 142.132 80.4629 136.903 80.3623C135.002 80.3256 132.279 81.1458 130.255 81.1494C122.56 81.1634 114.863 81.2833 107.171 80.9845C104.817 80.8858 102.041 80.3678 99.6259 80.1307C98.9642 80.5015 98.5877 80.71 97.8774 80.9973C96.0178 80.39 93.9069 81.1856 91.6282 80.9271C89.1708 80.648 86.9148 79.8293 84.5932 79.5553C84.1874 79.8412 83.7433 80.075 83.2421 80.1324C79.4525 80.5658 75.245 79.8024 71.4651 79.4168C67.782 79.0413 64.0257 78.7637 60.3343 78.4813C58.2736 78.3236 56.1872 78.5285 54.1335 78.3503C52.3611 78.1966 50.4025 77.3984 48.6287 77.5935C47.3508 77.7339 46.2125 78.7041 44.9554 79.0079C42.5058 79.6001 39.8628 79.5627 37.4593 80.3328C30.922 82.4273 19.4698 90.3766 15.1153 95.8275C13.0962 98.355 12.1613 101.209 10.6504 103.975C10.3243 104.572 9.61208 105.191 9.41075 105.803C9.06923 106.841 10.055 108.378 9.95234 109.551C9.61823 113.365 7.82904 117.642 8.24022 121.456C8.49928 123.86 9.91412 126.018 10.07 128.505C10.1579 129.907 9.39612 131.25 9.42186 131.973C9.45455 132.89 12.8387 140.041 13.3888 141.765C13.8114 143.09 13.9025 144.595 14.0546 145.974C15.0111 147.194 16.8916 148.457 17.6081 149.594C19.2811 152.247 20.1504 154.659 22.1761 157.156C23.8506 159.438 26.7674 161.211 28.5502 163.274C29.8869 164.821 28.6676 166.03 31.9326 166.532C33.1747 166.722 35.5151 168.271 36.8328 168.855C40.0939 170.3 43.8102 171.445 46.1501 174.312C46.7344 176.077 45.8742 179.805 45.836 181.45C45.7434 185.445 45.7727 188.925 45.101 192.851C44.9773 193.574 44.8524 194.621 44.8307 195.325C44.6992 199.614 44.8007 203.912 44.6689 208.201C44.5979 210.788 44.2274 213.453 44.4657 216.028C44.7833 218.786 46.5776 222.221 47.9882 224.608C53.0817 227.13 51.673 227.266 57.3241 225.047C61.549 226.482 61.447 225.221 65.3946 225.471C68.8728 225.692 72.3584 227.073 76.0909 226.909C79.4513 226.762 81.5747 225.564 84.7562 224.997C86.7961 224.634 88.8577 225.599 91.2336 225.457C101.28 224.856 105.659 220.861 115.686 224.76C116.053 224.622 116.422 224.5 116.801 224.404C124.783 222.388 130.462 225.733 138.048 225.879C139.678 225.91 141.283 225.281 142.914 225.342C144.648 225.407 146.371 225.75 148.108 225.835C150.437 225.948 152.788 225.82 155.111 226.031C157.411 226.24 159.739 226.801 162.055 226.757C164.324 226.715 166.567 226.17 168.831 226.067C170.118 226.008 171.31 226.625 172.66 226.599C178.024 226.496 183.46 225.766 188.815 226.071C189.727 226.123 192.259 226.395 192.995 226.89C193.279 227.082 193.422 227.452 193.756 227.623C193.856 227.674 197.356 226.126 197.911 225.952C203.021 227.359 207.66 226.746 213.018 226.966C214.814 228.743 215.571 228.312 218.025 228.246C218.657 227.722 219.141 227.099 219.792 227.144C220.816 228.769 221.417 228.192 223.584 228.559C226.77 229.098 229.932 229.219 233.026 230.298C234.812 230.921 237.14 232.755 238.815 232.886C242.749 233.193 249.273 232.802 252.938 233.701ZM248.515 221.314C243.564 221.886 237.494 221.946 233.241 219.363C233.107 219.281 231.909 219.813 231.728 219.928C230.5 219.825 228.8 219.643 227.617 219.517C222.652 218.95 217.678 218.462 212.698 218.053C211.987 217.991 209.654 217.559 209.328 217.585C207.493 217.726 201.318 218.685 199.827 218.005C199.614 217.537 199.397 217.07 199.177 216.605L198.787 216.593C198.261 217.625 198.183 218.09 197.185 218.426C195.855 217.787 196.727 216.631 195.732 216.737C195.312 217.695 195.299 218.097 194.442 218.458C193.026 218.07 193.847 216.846 193.031 216.606C192.231 217.612 192.766 217.941 191.895 218.182C191.049 217.142 191.486 216.899 190.507 216.451C189.453 217.1 190.131 217.63 189.069 218.143C188.055 217.742 188.355 217.04 187.928 216.955C184.128 216.2 180.407 216.406 176.788 217.869C176.623 217.935 173.293 215.548 172.85 215.926C170.915 217.862 167.224 215.223 165.849 217.693C164.225 218.095 162.056 214.833 159.874 217.742C159.367 217.334 159.645 216.782 158.797 216.717C154.361 216.378 149.878 216.724 145.434 216.297C143.822 216.142 142.397 215.311 140.766 215.304C140.156 215.658 139.769 215.906 139.194 216.314C137.177 216.274 133.528 215.871 131.486 215.704C128.659 215.473 117.74 216.168 116.042 214.865C114.871 214.98 114.575 215.544 113.669 215.601C110.959 215.773 108.018 215.471 105.319 215.792L104.467 216.436C104.109 216.423 103.632 216.04 103.403 215.869C101.555 215.908 99.5237 216.17 97.6382 216.294C95.2863 216.448 92.467 216.378 90.188 216.755C89.7801 217.257 89.6507 217.491 89.3379 218.06L88.9044 218.087C88.4317 217.276 88.3235 216.767 87.5686 216.555C86.3417 217.279 87.3163 218.279 85.4065 218.329C84.837 217.903 84.786 217.549 84.5358 216.875L84.1209 216.778C83.7559 217.3 83.3985 218.106 82.6912 218.185C81.3223 218.339 73.3792 218.34 72.7692 217.655C72.5738 217.436 72.413 217.144 72.2605 216.894C71.2919 216.978 71.2242 217.853 70.7855 217.913C68.8979 218.167 65.1352 218.308 63.3176 218.124C62.9778 217.572 62.9239 217.424 62.7214 216.806L62.42 216.703C61.8486 217.621 61.9579 217.766 61.1306 218.198C59.7912 217.907 60.2633 217.138 58.8133 216.652C57.0129 216.049 51.0079 217.729 52.45 214.19C53.3991 211.86 52.1915 210.761 52.1467 208.507C52.1214 206.984 52.8098 205.085 52.8308 203.555C52.9061 198.038 52.9645 192.644 53.7575 187.162C54.016 185.375 53.7556 183.221 54.0665 181.388C54.3329 179.121 54.8519 177.784 54.8126 175.46C57.4916 175.393 60.3031 175.054 62.7297 176.099C66.1805 174.987 80.6549 174.748 84.5217 176.047C84.9809 176.231 86.462 177.184 86.8683 177.181C90.1537 177.152 93.9717 177.083 97.2235 176.637C100.129 176.238 103.542 174.654 106.49 173.994C108.957 171.208 111.345 163.479 110.839 160.296C109.988 154.942 106.903 146.09 101.716 143.712C96.5869 140.011 94.0151 136.19 87.5653 133.904C84.0089 132.245 80.7678 132.494 77.6978 129.831C74.0273 130.011 68.5057 128.482 64.5106 127.8L63.7284 127.048C62.3068 127.188 62.9902 128.27 61.7528 127.273C61.6613 127.199 61.5707 127.124 61.4816 127.047C58.6608 126.735 56.2068 127.437 57.182 123.359C57.5859 121.67 57.6334 121.097 57.5278 119.415L55.4802 117.464C53.7956 117.331 52.9261 117.051 51.5755 118.206C50.0088 119.546 49.11 122.514 48.8015 124.493C47.48 125.038 47.129 125.249 46.0541 126.193C45.5165 127.919 45.161 129.042 44.8608 130.815C45.1975 131.566 45.5596 132.441 45.9926 133.127C48.0623 134.693 51.3494 135.648 53.9238 136.102C55.5393 136.386 59.1491 135.984 60.4803 136.452C65.7502 138.304 70.8444 138.651 76.3194 139.482C77.943 139.729 79.2064 141.87 80.4414 142.309C80.7304 142.001 80.9668 141.737 81.2377 141.412C82.3469 141.534 86.2869 145.191 87.4819 145.537C92.4389 146.972 94.6337 148.485 97.9839 152.587C101.096 156.397 101.702 159.362 101.318 164.307C98.0957 167.273 95.3823 167.1 91.246 166.983C90.9884 166.975 90.3434 167.423 90.0634 167.526C87.4237 167.056 85.2494 165.454 82.5523 165.154C81.2241 165.006 79.4077 165.604 78.2676 165.511C73.9037 165.132 69.8415 165.272 65.4962 165.708C64.1077 165.847 61.808 165.453 60.3286 165.392C56.9912 165.254 54.0503 165.529 50.7668 165.78C48.639 164.889 46.1749 162.997 43.9682 161.76C41.069 160.135 37.9246 158.709 35.1182 157C34.1288 156.397 32.5514 153.469 31.8385 152.77C28.2962 149.3 25.4497 146.331 23.1999 141.818C22.941 141.298 22.7569 139.097 22.3995 138.14C21.918 136.851 19.7593 133.356 19.5591 132.355C19.019 129.654 17.4398 121.729 17.5538 119.241C17.7278 115.444 18.4726 107.879 19.8299 104.356C20.3306 103.056 22.1087 101.072 22.8617 100.041C26.5443 94.9968 32.7277 92.1491 38.3545 89.8466C39.4146 89.4127 42.268 88.3219 43.1887 87.8351C47.5483 86.6761 50.5157 86.0708 55.0949 86.5541C57.8021 89.1244 66.0247 92.9696 69.7276 95.2473C73.2586 97.4192 75.1747 99.568 78.0493 101.557C82.859 104.884 84.6571 104.9 89.1265 109.201L91.2629 109.43C93.4034 111.868 94.8672 112.291 97.4027 114.236C98.4781 115.06 99.4651 116.253 100.562 117.1C101.295 117.666 103.422 118.542 104.017 119.153C107.014 122.232 109.978 125.34 113.303 128.088C114.086 128.454 115.537 128.35 116.284 128.718C117.121 129.132 117.946 130.619 118.802 131.02C123.668 133.299 128.997 135.21 132.956 139.003C140.505 139.758 138.298 143.361 145.547 143.794C149.729 148.274 155.702 149.922 160.573 153.52C163.518 152.547 170.832 149.99 173.323 148.32C182.809 141.964 191.917 136.477 202.463 131.984C206.529 130.252 211.448 127.237 215.793 126.012C218.639 122.343 218.43 123.734 222.57 121.844C223.06 121.621 223.928 120.167 224.614 119.714C227.846 117.581 232.175 114.897 235.89 113.856C239.175 110.008 242.158 108.353 246.492 106.254C249.202 104.942 252.175 102.195 255.175 100.977C259.522 97.7047 264.845 94.2558 268.869 90.7662C270.049 90.5794 270.94 90.454 272.148 90.3685C272.127 88.4231 272.12 86.7728 272.248 84.8354C272.675 84.4956 274.033 83.425 274.243 83.0949C278.105 77.0297 281.06 70.4489 281.455 63.1927C281.477 62.7877 282.873 60.8909 282.904 60.3083C283.752 54.3075 282.854 52.9831 287.265 48.1567C287.327 47.0892 287.408 44.8377 287.572 43.876C289.128 42.0114 289.817 38.9705 291.027 36.5939C293.753 31.2507 296.01 28.8271 300.318 24.946C304.316 20.5156 309.82 18.3782 315.668 17.8876C317.298 17.7511 322.097 17.7804 323.093 18.9765C328.423 25.3866 325.719 30.6559 320.912 36.0618C319.857 37.2487 319.216 38.8001 318.098 39.9722C316.564 41.7851 315.239 42.5926 314.21 44.7734C311.941 49.4911 308.176 53.9088 305.229 58.3146C304.414 59.5315 303.554 60.7568 302.765 62.0311C299.327 67.5893 298.402 75.2152 296.462 81.4837C296.034 82.8698 296.467 86.7333 296.072 88.3505C295.269 91.4774 294.985 91.5494 294.814 94.8524L293.379 96.4535C292.938 100.697 293.024 103.082 291.073 107.091C289.624 110.062 287.746 111.683 287.172 114.909C283.509 118.348 280.014 121.877 276.394 125.349C273.94 127.704 272.024 128.067 270.292 131.284C269.722 131.579 265.943 132.969 265.922 132.992C261.678 137.953 254.804 140.584 251.525 146.407C250.581 148.08 253.074 149.404 254.177 150.137L256.893 150.105L259.002 147.905C260.732 153.752 258.125 163.619 257.37 169.657C257.225 170.802 257.861 172.515 257.713 173.977C257.484 176.246 257.322 178.577 257.115 180.851C257.024 181.825 256.603 184.069 256.638 184.824C256.696 186.072 257.184 187.406 257.27 188.903L258.326 206.805C258.588 211.917 256.565 216.567 259.193 221.905L259.262 222.044C255.526 222.859 254.21 222.235 250.724 222.798L248.515 221.314ZM161.219 143.029C159.032 141.046 157.204 140.421 154.686 138.873C153.653 138.237 150.57 135.917 149.699 135.608C146.672 134.562 143.712 133.702 140.896 132.122C139.477 131.326 138.474 130.009 137.17 129.186C136.009 128.454 133.783 128.258 132.608 127.455C131.336 126.587 130.27 125.291 128.871 124.609C127.527 123.885 123.362 123.516 122.528 122.941C118.298 120.024 114.165 116.596 110.046 113.493C108.706 112.483 106.916 111.618 105.677 110.662C104.633 109.856 103.79 107.466 102.603 106.563C101.273 105.551 99.0624 105.087 97.8109 104.268C94.8624 102.336 91.9697 100.164 89.0838 98.156C85.7003 95.8013 81.4643 94.0742 78.8873 90.7009C77.8291 90.5336 76.6005 90.372 75.5645 90.1709C75.0805 89.5202 74.2339 88.5387 74.1031 87.8034L74.33 87.4924C75.738 87.2806 75.6646 88.8344 77.3361 88.7108C79.6053 88.5428 79.8049 86.6415 81.4755 88.4958C83.962 88.8873 87.4223 88.6791 90.0544 88.8161C93.5845 88.9996 97.2872 89.9786 100.645 88.8628C102.886 89.6767 102.961 89.4725 105.188 88.8325C109.309 90.2246 116.13 89.6415 120.477 89.7659C129.607 90.0275 138.891 89.6601 147.978 88.7298C152.417 88.3197 156.99 89.1013 161.461 87.7355C162.563 87.4552 162.909 87.9528 164.32 87.4124C166.678 87.3351 169.091 87.1595 171.411 87.5313C172.247 87.6654 174.228 89.0546 174.734 88.7336C178.831 86.1311 177.089 88.649 179.33 89.2791C181.344 89.3379 182.172 87.7869 183.637 87.5515C187.168 86.9844 190.861 87.4555 194.4 86.6906C194.789 86.6065 195.913 87.4124 196.484 87.2382C198.773 87.2375 201.182 86.9093 203.436 86.9122C206.053 86.9153 208.984 87.3144 211.605 87.5358C212.503 87.6118 212.699 88.4422 213.866 88.5163C215.826 88.6407 218.545 87.3509 220.27 87.2992C222.757 87.2246 226.019 86.9899 228.341 87.8622C229.693 88.3702 231.868 89.4904 233.193 89.7094C236.176 90.2031 235.652 89.509 238.822 90.4895C245.029 88.4005 246.095 90.8198 251.646 91.8294C248.072 93.9923 244.269 95.4224 240.559 97.9642C238.102 99.6469 235.555 101.654 233.149 103.136C231.324 104.26 228.599 104.836 226.46 106.26C223.296 108.367 221.772 111.154 218.612 113.109C215.118 115.111 211.165 116.526 207.586 118.286C203.553 120.269 198.366 123.929 194.225 125.383C188.391 127.431 185.421 128.469 180.682 132.64C179.417 133.753 174.907 135.172 173.357 136.387C170.604 138.08 167.835 139.621 164.949 141.069C163.878 141.607 162.368 143.159 161.219 143.029Z" fill="black"/>
<path d="M184.755 111.292C185.859 111.466 189.749 110.771 190.973 110.369C195.899 108.751 199.836 107.453 202.53 102.895L202.464 102.68C201.232 98.561 203.717 99.4738 200.975 95.6125C197.302 93.6781 196.089 93.6745 193.522 96.7686L193.327 100.211C192.42 100.505 191.453 100.779 190.535 101.056C186.205 101.054 182.415 102.784 181.413 96.5915C179.103 94.0455 178.833 93.6221 175.539 94.5588L173.668 96.3943C173.362 97.7932 173.065 99.1943 172.778 100.597C175.439 107.863 178.515 107.81 184.755 111.292Z" fill="black"/>
<path d="M127.823 108.837C131.86 107.762 135.671 106.069 138.58 102.957C140.375 101.037 141.544 97.3554 139.245 95.3601C137.637 93.9652 135.961 94.2201 134.029 94.3807C132.282 95.8471 130.658 97.5859 129.07 99.231C127.086 99.1335 125.101 99.0799 123.115 99.0699C121.862 97.0278 119.906 92.3718 117.958 91.6465C112.099 89.4657 113.119 99.8703 114.716 102.783C116.177 105.447 118.88 107.919 122.016 108.192C123.99 108.396 125.95 108.15 127.823 108.837Z" fill="black" fill-opacity="0.988235"/>
<path d="M156.047 129.097C159.987 129.47 165.224 126.489 167.869 123.685C169.647 121.799 171.881 117.36 169.257 115.235C167.676 113.954 165.88 114.29 164.027 114.46L163.894 114.595C161.967 116.539 161.201 116.849 158.841 118.275C154.231 122.783 151.965 113.291 147.508 115.775C147.236 115.926 144.677 118.548 144.619 118.908C146.12 120.056 145.854 121.373 146.024 123.19C148.192 125.932 152.765 127.865 156.047 129.097Z" fill="black"/>
</svg>
